<?xml version='1.0' encoding='utf-8'?>
<svg xmlns="http://www.w3.org/2000/svg" version="1.1" viewBox="0 0 600.100 111.600" width="600.100" height="111.600"><g transform="translate(-295.600,-65.400)"><path d="m329.2 122.5l-10.7 11.1-0.8-17.5 31.4-33.2h16.9l-28.3 30.5zm-9.2 26.3h-15.1v-65.8h15.1zm47.6 0h-17.7l-23.4-28.7 9.9-10.8zm49.9 0h-13.8v-9.9l-0.8-2.2v-17.6q0-4.7-3-7.3-2.8-2.6-8.7-2.6-4 0-8 1.2-3.9 1.3-6.6 3.4l-5.3-10.2q4.2-3 10-4.4 5.8-1.7 11.9-1.7 11.6 0 17.9 5.5 6.4 5.4 6.4 16.9zm-29.1 0.7q-5.9 0-10.2-1.9-4.2-2.1-6.5-5.5-2.2-3.5-2.2-7.9 0-4.5 2.1-7.8 2.3-3.4 7.1-5.3 4.8-2 12.5-2h13.4v8.5h-11.8q-5.2 0-7.2 1.7-1.8 1.7-1.8 4.3 0 2.8 2.1 4.5 2.3 1.6 6.1 1.6 3.7 0 6.6-1.7 3-1.7 4.3-5.2l2.2 6.8q-1.6 4.8-5.8 7.4-4.2 2.5-10.9 2.5zm9.1-57.8h-11.4l12.7-13.5h15.8zm29.5 76q-3.4 0-6.6-0.6-3.1-0.8-5.2-2.2l3.9-10.6q2.5 1.8 6.2 1.8 2.8 0 4.4-1.8 1.6-1.9 1.6-5.6v-50.5h14.7v50.4q0 8.8-5 14-4.9 5.1-14 5.1zm11.7-76.6q-4.1 0-6.7-2.2-2.5-2.5-2.5-6 0-3.4 2.5-5.8 2.6-2.4 6.7-2.4 4 0 6.5 2.3 2.6 2.2 2.6 5.7 0 3.6-2.6 6.1-2.4 2.3-6.5 2.3zm45 58.3q-8 0-14.3-3.3-6.2-3.3-9.9-9.2-3.5-5.9-3.5-13.5 0-7.6 3.5-13.4 3.7-5.9 9.9-9.2 6.3-3.3 14.3-3.3 8.1 0 14.4 3.3 6.3 3.3 9.7 9.2 3.7 5.8 3.7 13.4 0 7.6-3.7 13.5-3.4 5.9-9.7 9.2-6.3 3.3-14.4 3.3zm0-12q3.7 0 6.6-1.5 2.9-1.8 4.6-4.9 1.7-3.3 1.7-7.6 0-4.4-1.7-7.5-1.7-3.1-4.6-4.8-2.9-1.6-6.5-1.6-3.7 0-6.7 1.6-2.8 1.7-4.6 4.8-1.7 3.1-1.7 7.5 0 4.3 1.7 7.6 1.8 3.1 4.6 4.9 3 1.5 6.6 1.5zm64.9 11.3h-15.1l-21.3-50.5h15.1l17.7 43.5h-7.5l18.4-43.5h14zm50.1 0.7q-8 0-14.3-3.4-6.2-3.3-9.9-9.2-3.5-5.9-3.5-13.4 0-7.7 3.5-13.5 3.7-5.9 9.9-9.2 6.3-3.3 14.3-3.3 8.1 0 14.4 3.3 6.3 3.3 9.7 9.2 3.7 5.8 3.7 13.5 0 7.5-3.7 13.4-3.4 5.9-9.7 9.2-6.3 3.4-14.4 3.4zm0-12q3.7 0 6.6-1.6 3-1.8 4.6-4.9 1.7-3.2 1.7-7.5 0-4.4-1.7-7.5-1.6-3.2-4.6-4.8-2.9-1.7-6.5-1.7-3.7 0-6.7 1.7-2.8 1.6-4.6 4.8-1.7 3.1-1.7 7.5 0 4.3 1.7 7.5 1.8 3.1 4.6 4.9 3 1.6 6.6 1.6z" fill="#000000" /><path d="m697.2 148.7h-15.3v-65.8h15.3zm-45.1 0h-15.3v-65.8h15.3zm30.9-27h-32.1v-12.8h32.1zm52.8 27.7q-8 0-14.3-3.4-6.3-3.3-9.9-9.2-3.5-5.9-3.5-13.5 0-7.6 3.5-13.4 3.7-5.9 9.9-9.2 6.2-3.3 14.3-3.3 8 0 14.3 3.3 6.3 3.3 9.8 9.2 3.6 5.8 3.6 13.4 0 7.6-3.6 13.5-3.5 5.9-9.8 9.2-6.3 3.4-14.3 3.4zm0-12q3.7 0 6.5-1.6 3-1.8 4.6-4.9 1.8-3.2 1.8-7.6 0-4.4-1.8-7.5-1.6-3.1-4.6-4.7-2.8-1.7-6.5-1.7-3.7 0-6.6 1.7-2.9 1.6-4.6 4.7-1.7 3.1-1.7 7.5 0 4.4 1.7 7.6 1.7 3.1 4.6 4.9 2.9 1.6 6.6 1.6zm58.7 12q-9 0-14-4.5-4.9-4.6-4.9-13.6v-44.4h14.6v44.1q0 3.2 1.7 5.1 1.7 1.7 4.6 1.7 3.5 0 6-1.9l3.8 10.3q-2.2 1.6-5.4 2.5-3.1 0.7-6.4 0.7zm8.3-40.1h-35.1v-11.2h35.1zm34.9 40q-8.5 0-15.1-3.3-6.4-3.4-10-9.2-3.5-6-3.5-13.5 0-7.6 3.4-13.4 3.5-5.9 9.6-9.2 6.2-3.4 13.9-3.4 7.3 0 13.2 3.2 6 3.1 9.4 9 3.6 5.8 3.6 14 0 0.9-0.1 2 0 1-0.1 1.9h-41v-8.5h33.2l-5.7 2.5q0.1-3.9-1.6-6.7-1.5-3.1-4.4-4.6-2.8-1.8-6.4-1.8-3.8 0-6.7 1.8-2.8 1.5-4.4 4.6-1.6 2.9-1.6 6.9v2.3q0 4.1 1.8 7.3 1.9 3.1 5.1 4.8 3.5 1.6 7.9 1.6 4 0 7-1.1 3.1-1.3 5.7-3.8l7.8 8.5q-3.6 3.9-8.8 6.1-5.2 2-12.2 2zm48.7-0.7h-14.7v-69.8h14.7z" fill="#737578" /></g></svg>