<?xml version='1.0' encoding='utf-8'?>
<svg xmlns="http://www.w3.org/2000/svg" version="1.1" viewBox="0 0 226.290 241.737" width="226.290" height="241.737"><g transform="translate(-68.855,0.145)"><path fill-rule="evenodd" d="m152 80h42v41h-42zm12.2 15.6c-0.8 1.7-1.1 4.4-0.8 6.7-0.3-2.3 0-5 0.8-6.7zm-0.8 6.7c0.4 2.4 1.6 4.5 3.6 6.2-2-1.7-3.2-3.8-3.6-6.3zm10.1 8.8c1.9 0 4.7-0.6 6.3-1.4-1.6 0.8-4.4 1.4-6.3 1.4zm6.3-1.4c1.5-0.7 3.3-2.5 4-4-0.7 1.5-2.5 3.3-4 4zm4-4c0.6-1.4 1.2-4.2 1.2-6.1 0 1.9-0.6 4.7-1.2 6.1z" fill="#737578" /><path d="m168.5 90.8c-1.7 1-3.6 3.1-4.3 4.8-0.8 1.7-1.1 4.4-0.8 6.7 0.4 2.4 1.6 4.5 3.6 6.2 1.9 1.6 4.2 2.5 6.5 2.5 1.9 0 4.7-0.6 6.3-1.4 1.5-0.7 3.3-2.5 4-4 0.6-1.4 1.2-4.2 1.2-6.1 0-2.4-0.9-4.5-2.8-6.6-1.9-2.1-3.9-3.2-6.7-3.5-2.8-0.4-4.9 0-7 1.4z" fill="#FF0000" /><path fill-rule="evenodd" d="m90 20h185v45h-140.5l1 56h-45.5zm104.6 59.9l80.4 0.1v31c0 30.9 0 31-2.6 38.3-1.4 3.9-4.2 10.1-6.2 13.7-2 3.6-5.8 9.1-8.4 12.3-2.6 3.1-8.3 8.3-12.5 11.6-4.3 3.2-10.5 7.5-13.8 9.5-3.3 2-6.3 3.6-6.7 3.6-0.5 0-0.8-17.8-0.8-79h-29.6zm-105.6 54.1h15.2c8.4 0 35.3 0.3 104.3 1.3l-0.5 72.7-12.8 7.1c-12 6.7-12.9 7-15.7 5.8-1.7-0.7-11.6-5.5-22-10.7-10.5-5.1-22.6-11.6-27-14.2-4.4-2.6-11.9-8.2-16.8-12.4-4.8-4.2-10.2-10-12.1-12.8-1.8-2.9-4.2-7.1-5.4-9.3-1.1-2.2-3.2-8.1-4.6-13.2-1.4-5.1-2.6-10.4-2.6-11.8z" fill="#000000" /></g></svg>