<svg xmlns="http://www.w3.org/2000/svg" viewBox="0 0 320 420" role="img" aria-labelledby="title desc">
  <title id="title">Postava Kaja</title>
  <desc id="desc">Ilustracni postava Kaja pro prihlasovaci obrazovky.</desc>
  <defs>
    <linearGradient id="bg" x1="0" y1="0" x2="1" y2="1">
      <stop offset="0%" stop-color="#e7f1ff" />
      <stop offset="100%" stop-color="#d2f4e7" />
    </linearGradient>
  </defs>
  <rect width="320" height="420" rx="28" fill="url(#bg)" />
  <circle cx="160" cy="122" r="62" fill="#ffd6b0" />
  <circle cx="138" cy="114" r="7" fill="#1f2937" />
  <circle cx="182" cy="114" r="7" fill="#1f2937" />
  <path d="M132 145c8 14 22 21 28 21s20-7 28-21" fill="none" stroke="#9a3412" stroke-width="6" stroke-linecap="round" />
  <path d="M99 99c8-42 46-63 61-63s53 21 61 63c-8-8-20-12-31-12-10 0-20 3-30 10-9-7-20-10-30-10-11 0-23 4-31 12z" fill="#0f766e" />
  <rect x="106" y="194" width="108" height="118" rx="26" fill="#2563eb" />
  <rect x="68" y="216" width="36" height="95" rx="18" fill="#2563eb" />
  <rect x="216" y="216" width="36" height="95" rx="18" fill="#2563eb" />
  <rect x="120" y="312" width="28" height="66" rx="12" fill="#1f2937" />
  <rect x="172" y="312" width="28" height="66" rx="12" fill="#1f2937" />
  <text x="160" y="396" text-anchor="middle" font-size="28" font-family="Arial, sans-serif" fill="#0f172a">KAJA</text>
</svg>
