<svg xmlns="http://www.w3.org/2000/svg" viewBox="0 0 256 256" role="img" aria-label="KájovoHotel">
  <rect x="18" y="18" width="220" height="220" rx="56" fill="#070b14"/>
  <path d="M74 168c-34 0-58-22-58-52 0-27 18-49 44-55 5-36 40-59 80-45 18-18 44-24 66-13 24 12 36 39 29 65 14 11 23 28 23 47 0 31-25 53-60 53H74z" fill="#0ea5e9" opacity="0.25"/>
  <text x="58" y="140" font-family="ui-sans-serif, system-ui, -apple-system, Segoe UI, Roboto, Helvetica, Arial" font-size="96" font-weight="900" fill="#ffffff" letter-spacing="2">a</text>
  <text x="112" y="140" font-family="ui-sans-serif, system-ui, -apple-system, Segoe UI, Roboto, Helvetica, Arial" font-size="96" font-weight="900" fill="#fbbf24" letter-spacing="2">s</text>
  <text x="162" y="140" font-family="ui-sans-serif, system-ui, -apple-system, Segoe UI, Roboto, Helvetica, Arial" font-size="96" font-weight="900" fill="#94a3b8" letter-spacing="2">c</text>
  <rect x="60" y="158" width="136" height="10" rx="5" fill="#94a3b8" opacity="0.6"/>
</svg>
