<svg version="1.2" xmlns="http://www.w3.org/2000/svg" viewBox="0 0 907 243" width="907" height="243"><style>.a{fill:#f00}.b{fill:#fff}.c{fill:#727578}.d{fill:#737578}</style><path fill-rule="evenodd" class="a" d="m26.2 20.2h53v202h-59v-196q0-1.2 0.5-2.3 0.4-1.1 1.3-1.9 0.8-0.9 1.9-1.3 1.1-0.5 2.3-0.5z"/><path class="b" d="m56 197.8l4.1 4-8.9 0.3-12.7-12.3 0.2-8.7 12.8 12.2zm10.3 3.4l-0.1 7.8-28-0.5 0.1-7.8zm0.4-20.2l-0.2 9.2-11.7 9-5.4-5.3zm0.1-5.5l-0.2 8.1-27.8-12.8 0.2-7.8 28.2-11.9-0.2 8.2-24.3 9.3 0.1-3.1zm-5.2-16.6l-0.3 17.8-5.8-2.1 0.3-13.7zm-25 6.3l-0.1 5.4-6-5.4 0.2-7.6zm31.2-23.3q0 3.1-1.1 5.6-1.1 2.5-3.2 4.1l-5-4.4q1.4-1.1 2.2-2.3 0.7-1.2 0.8-2.5 0-3.5-4.1-3.6l-12-0.2-0.1 9.7-6.2-0.1 0.3-17.5 17.7 0.3q5.5 0 8.2 2.9 2.6 2.8 2.5 8zm0.5-30.3q0 3.4-1.2 6.2-1.1 2.9-3.1 4.9-2 2.1-4.6 3.2-2.8 1.1-5.9 1.1-3.2-0.1-5.8-1.3-2.6-1.2-4.5-3.3-2-2.2-3-5-1-2.9-1-6.2 0.1-3.4 1.2-6.2 1.1-2.8 3.2-4.9 1.9-2 4.6-3.1 2.7-1.2 5.8-1.1 3.2 0 5.8 1.3 2.7 1.1 4.6 3.3 1.9 2.1 2.9 4.9 1.1 2.9 1 6.2zm-6.5-0.1q0-1.6-0.5-2.9-0.6-1.4-1.6-2.4-1.1-1.1-2.5-1.7-1.5-0.6-3.3-0.6-1.8-0.1-3.3 0.5-1.5 0.5-2.5 1.6-1.1 0.9-1.7 2.3-0.6 1.4-0.7 3 0 1.6 0.6 3 0.5 1.3 1.6 2.4 1 1 2.5 1.7 1.4 0.5 3.2 0.6 1.8 0 3.4-0.5 1.4-0.6 2.5-1.6 1.1-1 1.7-2.4 0.6-1.4 0.6-3zm6.6-35l-0.2 7.8-28.2 11.5 0.2-8.6 24.4-9.7-0.1 5.1-24.1-10.7 0.2-7.9zm1-27.3q-0.1 3.3-1.2 6.2-1.1 2.8-3.1 4.9-2 2-4.7 3.1-2.7 1.1-5.9 1.1-3.1-0.1-5.7-1.3-2.6-1.2-4.6-3.3-1.9-2.1-2.9-5-1.1-2.9-1-6.2 0-3.4 1.2-6.2 1.1-2.8 3.1-4.9 2-2 4.7-3.1 2.6-1.2 5.8-1.1 3.1 0 5.8 1.3 2.6 1.2 4.5 3.3 2 2.1 3 5 1 2.8 1 6.2zm-6.6-0.1q0.1-1.6-0.4-3-0.6-1.4-1.6-2.4-1.1-1.1-2.5-1.7-1.5-0.6-3.4-0.6-1.8-0.1-3.2 0.5-1.5 0.5-2.6 1.6-1.1 1-1.7 2.3-0.6 1.4-0.6 3 0 1.6 0.5 3 0.6 1.4 1.6 2.4 1 1.1 2.5 1.7 1.5 0.5 3.3 0.6 1.8 0 3.3-0.5 1.5-0.6 2.6-1.6 1-1 1.7-2.3 0.5-1.4 0.5-3z"/><path fill-rule="evenodd" class="c" d="m152 80h42v41h-42zm12.2 15.6c-0.8 1.7-1.1 4.4-0.8 6.7-0.3-2.3 0-5 0.8-6.7zm-0.8 6.7c0.4 2.4 1.6 4.5 3.6 6.2-2-1.7-3.2-3.8-3.6-6.3zm10.1 8.8c1.9 0 4.7-0.6 6.3-1.4-1.6 0.8-4.4 1.4-6.3 1.4zm6.3-1.4c1.5-0.7 3.3-2.5 4-4-0.7 1.5-2.5 3.3-4 4zm4-4c0.6-1.4 1.2-4.2 1.2-6.1 0 1.9-0.6 4.7-1.2 6.1z"/><path class="a" d="m168.5 90.8c-1.7 1-3.6 3.1-4.3 4.8-0.8 1.7-1.1 4.4-0.8 6.7 0.4 2.4 1.6 4.5 3.6 6.2 1.9 1.6 4.2 2.5 6.5 2.5 1.9 0 4.7-0.6 6.3-1.4 1.5-0.7 3.3-2.5 4-4 0.6-1.4 1.2-4.2 1.2-6.1 0-2.4-0.9-4.5-2.8-6.6-1.9-2.1-3.9-3.2-6.7-3.5-2.8-0.4-4.9 0-7 1.4z"/><path fill-rule="evenodd" d="m90 20h185v45h-140.5l1 56h-45.5zm104.6 59.9l80.4 0.1v31c0 30.9 0 31-2.6 38.3-1.4 3.9-4.2 10.1-6.2 13.7-2 3.6-5.8 9.1-8.4 12.3-2.6 3.1-8.3 8.3-12.5 11.6-4.3 3.2-10.5 7.5-13.8 9.5-3.3 2-6.3 3.6-6.7 3.6-0.5 0-0.8-17.8-0.8-79h-29.6zm-105.6 54.1h15.2c8.4 0 35.3 0.3 104.3 1.3l-0.5 72.7-12.8 7.1c-12 6.7-12.9 7-15.7 5.8-1.7-0.7-11.6-5.5-22-10.7-10.5-5.1-22.6-11.6-27-14.2-4.4-2.6-11.9-8.2-16.8-12.4-4.8-4.2-10.2-10-12.1-12.8-1.8-2.9-4.2-7.1-5.4-9.3-1.1-2.2-3.2-8.1-4.6-13.2-1.4-5.1-2.6-10.4-2.6-11.8z"/><path  d="m329.2 122.5l-10.7 11.1-0.8-17.5 31.4-33.2h16.9l-28.3 30.5zm-9.2 26.3h-15.1v-65.8h15.1zm47.6 0h-17.7l-23.4-28.7 9.9-10.8zm49.9 0h-13.8v-9.9l-0.8-2.2v-17.6q0-4.7-3-7.3-2.8-2.6-8.7-2.6-4 0-8 1.2-3.9 1.3-6.6 3.4l-5.3-10.2q4.2-3 10-4.4 5.8-1.7 11.9-1.7 11.6 0 17.9 5.5 6.4 5.4 6.4 16.9zm-29.1 0.7q-5.9 0-10.2-1.9-4.2-2.1-6.5-5.5-2.2-3.5-2.2-7.9 0-4.5 2.1-7.8 2.3-3.4 7.1-5.3 4.8-2 12.5-2h13.4v8.5h-11.8q-5.2 0-7.2 1.7-1.8 1.7-1.8 4.3 0 2.8 2.1 4.5 2.3 1.6 6.1 1.6 3.7 0 6.6-1.7 3-1.7 4.3-5.2l2.2 6.8q-1.6 4.8-5.8 7.4-4.2 2.5-10.9 2.5zm9.1-57.8h-11.4l12.7-13.5h15.8zm29.5 76q-3.4 0-6.6-0.6-3.1-0.8-5.2-2.2l3.9-10.6q2.5 1.8 6.2 1.8 2.8 0 4.4-1.8 1.6-1.9 1.6-5.6v-50.5h14.7v50.4q0 8.8-5 14-4.9 5.1-14 5.1zm11.7-76.6q-4.1 0-6.7-2.2-2.5-2.5-2.5-6 0-3.4 2.5-5.8 2.6-2.4 6.7-2.4 4 0 6.5 2.3 2.6 2.2 2.6 5.7 0 3.6-2.6 6.1-2.4 2.3-6.5 2.3zm45 58.3q-8 0-14.3-3.3-6.2-3.3-9.9-9.2-3.5-5.9-3.5-13.5 0-7.6 3.5-13.4 3.7-5.9 9.9-9.2 6.3-3.3 14.3-3.3 8.1 0 14.4 3.3 6.3 3.3 9.7 9.2 3.7 5.8 3.7 13.4 0 7.6-3.7 13.5-3.4 5.9-9.7 9.2-6.3 3.3-14.4 3.3zm0-12q3.7 0 6.6-1.5 2.9-1.8 4.6-4.9 1.7-3.3 1.7-7.6 0-4.4-1.7-7.5-1.7-3.1-4.6-4.8-2.9-1.6-6.5-1.6-3.7 0-6.7 1.6-2.8 1.7-4.6 4.8-1.7 3.1-1.7 7.5 0 4.3 1.7 7.6 1.8 3.1 4.6 4.9 3 1.5 6.6 1.5zm64.9 11.3h-15.1l-21.3-50.5h15.1l17.7 43.5h-7.5l18.4-43.5h14zm50.1 0.7q-8 0-14.3-3.4-6.2-3.3-9.9-9.2-3.5-5.9-3.5-13.4 0-7.7 3.5-13.5 3.7-5.9 9.9-9.2 6.3-3.3 14.3-3.3 8.1 0 14.4 3.3 6.3 3.3 9.7 9.2 3.7 5.8 3.7 13.5 0 7.5-3.7 13.4-3.4 5.9-9.7 9.2-6.3 3.4-14.4 3.4zm0-12q3.7 0 6.6-1.6 3-1.8 4.6-4.9 1.7-3.2 1.7-7.5 0-4.4-1.7-7.5-1.6-3.2-4.6-4.8-2.9-1.7-6.5-1.7-3.7 0-6.7 1.7-2.8 1.6-4.6 4.8-1.7 3.1-1.7 7.5 0 4.3 1.7 7.5 1.8 3.1 4.6 4.9 3 1.6 6.6 1.6z"/><path class="d" d="m697.2 148.7h-15.3v-65.8h15.3zm-45.1 0h-15.3v-65.8h15.3zm30.9-27h-32.1v-12.8h32.1zm52.8 27.7q-8 0-14.3-3.4-6.3-3.3-9.9-9.2-3.5-5.9-3.5-13.5 0-7.6 3.5-13.4 3.7-5.9 9.9-9.2 6.2-3.3 14.3-3.3 8 0 14.3 3.3 6.3 3.3 9.8 9.2 3.6 5.8 3.6 13.4 0 7.6-3.6 13.5-3.5 5.9-9.8 9.2-6.3 3.4-14.3 3.4zm0-12q3.7 0 6.5-1.6 3-1.8 4.6-4.9 1.8-3.2 1.8-7.6 0-4.4-1.8-7.5-1.6-3.1-4.6-4.7-2.8-1.7-6.5-1.7-3.7 0-6.6 1.7-2.9 1.6-4.6 4.7-1.7 3.1-1.7 7.5 0 4.4 1.7 7.6 1.7 3.1 4.6 4.9 2.9 1.6 6.6 1.6zm58.7 12q-9 0-14-4.5-4.9-4.6-4.9-13.6v-44.4h14.6v44.1q0 3.2 1.7 5.1 1.7 1.7 4.6 1.7 3.5 0 6-1.9l3.8 10.3q-2.2 1.6-5.4 2.5-3.1 0.7-6.4 0.7zm8.3-40.1h-35.1v-11.2h35.1zm34.9 40q-8.5 0-15.1-3.3-6.4-3.4-10-9.2-3.5-6-3.5-13.5 0-7.6 3.4-13.4 3.5-5.9 9.6-9.2 6.2-3.4 13.9-3.4 7.3 0 13.2 3.2 6 3.1 9.4 9 3.6 5.8 3.6 14 0 0.9-0.1 2 0 1-0.1 1.9h-41v-8.5h33.2l-5.7 2.5q0.1-3.9-1.6-6.7-1.5-3.1-4.4-4.6-2.8-1.8-6.4-1.8-3.8 0-6.7 1.8-2.8 1.5-4.4 4.6-1.6 2.9-1.6 6.9v2.3q0 4.1 1.8 7.3 1.9 3.1 5.1 4.8 3.5 1.6 7.9 1.6 4 0 7-1.1 3.1-1.3 5.7-3.8l7.8 8.5q-3.6 3.9-8.8 6.1-5.2 2-12.2 2zm48.7-0.7h-14.7v-69.8h14.7z"/></svg>