<?xml version="1.0" encoding="UTF-8" standalone="no"?>
<svg xmlns="http://www.w3.org/2000/svg" version="1.2" viewBox="-238.34 -37.824 721.6800000000001 390.84799999999996">
<defs/>
<style>.a{fill:#f00}.b{fill:#fff}.c{fill:#808080}</style>
<g transform="translate(-76.0,-74.0)">
<path fill-rule="evenodd" class="a" d="m135 74v202h-59v-202z" id="path4" />
<path class="b" d="m109.8 252.6l4.1 4-8.9 0.3-12.7-12.3 0.2-8.7 12.8 12.2zm10.3 3.4l-0.1 7.8-28-0.5 0.1-7.8zm0.4-20.2l-0.2 9.2-11.7 9-5.4-5.3zm0.1-5.5l-0.2 8.1-27.8-12.8 0.2-7.8 28.2-11.9-0.2 8.2-24.3 9.3 0.1-3.1zm-5.2-16.6l-0.3 17.8-5.8-2.1 0.3-13.7zm-25 6.3l-0.1 5.4-6-5.4 0.2-7.6zm31.2-23.3q0 3.1-1.1 5.6-1.1 2.5-3.2 4.1l-5-4.4q1.4-1.1 2.2-2.3 0.7-1.2 0.8-2.5 0-3.5-4.1-3.6l-12-0.2-0.1 9.7-6.2-0.1 0.3-17.5 17.7 0.3q5.5 0 8.2 2.9 2.6 2.8 2.5 8zm0.5-30.3q0 3.4-1.2 6.2-1.1 2.9-3.1 4.9-2 2.1-4.6 3.2-2.8 1.1-5.9 1.1-3.2-0.1-5.8-1.3-2.6-1.2-4.5-3.3-2-2.2-3-5-1-2.9-1-6.2 0.1-3.4 1.2-6.2 1.1-2.8 3.2-4.9 1.9-2 4.6-3.1 2.7-1.2 5.8-1.1 3.2 0 5.8 1.3 2.7 1.1 4.6 3.3 1.9 2.1 2.9 4.9 1.1 2.9 1 6.2zm-6.5-0.1q0-1.6-0.5-2.9-0.6-1.4-1.6-2.4-1.1-1.1-2.5-1.7-1.5-0.6-3.3-0.6-1.8-0.1-3.3 0.5-1.5 0.5-2.5 1.6-1.1 0.9-1.7 2.3-0.6 1.4-0.7 3 0 1.6 0.6 3 0.5 1.3 1.6 2.4 1 1 2.5 1.7 1.4 0.5 3.2 0.6 1.8 0 3.4-0.5 1.4-0.6 2.5-1.6 1.1-1 1.7-2.4 0.6-1.4 0.6-3zm6.6-35l-0.2 7.8-28.2 11.5 0.2-8.6 24.4-9.7-0.1 5.1-24.1-10.7 0.2-7.9zm1-27.3q-0.1 3.3-1.2 6.2-1.1 2.8-3.1 4.9-2 2-4.7 3.1-2.7 1.1-5.9 1.1-3.1-0.1-5.7-1.3-2.6-1.2-4.6-3.3-1.9-2.1-2.9-5-1.1-2.9-1-6.2 0-3.4 1.2-6.2 1.1-2.8 3.1-4.9 2-2 4.7-3.1 2.6-1.2 5.8-1.1 3.1 0 5.8 1.3 2.6 1.2 4.5 3.3 2 2.1 3 5 1 2.8 1 6.2zm-6.6-0.1q0.1-1.6-0.4-3-0.6-1.4-1.6-2.4-1.1-1.1-2.5-1.7-1.5-0.6-3.4-0.6-1.8-0.1-3.2 0.5-1.5 0.5-2.6 1.6-1.1 1-1.7 2.3-0.6 1.4-0.6 3 0 1.6 0.5 3 0.6 1.4 1.6 2.4 1 1.1 2.5 1.7 1.5 0.5 3.3 0.6 1.8 0 3.3-0.5 1.5-0.6 2.6-1.6 1-1 1.7-2.3 0.5-1.4 0.5-3z" id="path6" />
<path d="m145 169.7h43.4l-0.9-53.2h133.3v-42.5h-175.8zm59.9 0v-38.6h115.9l0.1 59.1c0 0-4 15.2-12.6 26.9-13.2 18-35.9 28.6-35.9 28.6l0.2-75.9-69.7-0.1zm-60.8 12.6l113 0.9v69.6l-24.1 13.5c0 0-14-6.1-27.6-13-10.6-5.5-10.9-5-21-11.4-7.4-4.7-7.7-4.4-14.2-10.1-10.4-9.1-11.7-9.2-18.2-21.1-6.8-12.6-7.9-28.4-7.9-28.4z" id="path12" />
</g>
<g transform="translate(-511.25,94.19999999999999)">
<path d="m367.1 175.8l-10.7 11.1-0.8-17.5 31.5-33.2h16.9l-28.4 30.5zm-9.2 26.3h-15.1v-65.8h15.1zm47.7 0h-17.7l-23.5-28.7 10-10.8zm49.9 0h-13.8v-9.9l-0.8-2.2v-17.6q0-4.7-3-7.3-2.8-2.6-8.7-2.6-4 0-8 1.2-3.9 1.3-6.6 3.4l-5.3-10.2q4.2-3 10-4.4 5.8-1.7 11.9-1.7 11.6 0 17.9 5.5 6.4 5.4 6.4 16.9zm-29.1 0.7q-5.9 0-10.2-1.9-4.2-2.1-6.5-5.5-2.2-3.5-2.2-7.9 0-4.5 2.1-7.8 2.3-3.4 7.1-5.3 4.8-2 12.5-2h13.4v8.5h-11.8q-5.2 0-7.2 1.7-1.8 1.7-1.8 4.3 0 2.8 2.1 4.5 2.3 1.6 6.1 1.6 3.7 0 6.6-1.7 3-1.7 4.3-5.2l2.2 6.8q-1.6 4.8-5.8 7.4-4.2 2.5-10.9 2.5zm9.1-57.8h-11.4l12.7-13.5h15.8zm29.5 76q-3.4 0-6.6-0.6-3.1-0.8-5.2-2.2l3.9-10.6q2.5 1.8 6.2 1.8 2.8 0 4.4-1.8 1.6-1.9 1.6-5.6v-50.5h14.7v50.4q0 8.8-5 14-4.9 5.1-14 5.1zm11.7-76.6q-4.1 0-6.7-2.2-2.5-2.5-2.5-6 0-3.4 2.5-5.8 2.6-2.4 6.7-2.4 4 0 6.5 2.3 2.6 2.2 2.6 5.7 0 3.6-2.6 6.1-2.4 2.3-6.5 2.3zm45 58.3q-8 0-14.3-3.3-6.2-3.3-9.9-9.2-3.5-5.9-3.5-13.5 0-7.6 3.5-13.4 3.7-5.9 9.9-9.2 6.3-3.3 14.3-3.3 8.1 0 14.4 3.3 6.3 3.3 9.7 9.2 3.7 5.8 3.7 13.4 0 7.6-3.7 13.5-3.4 5.9-9.7 9.2-6.3 3.3-14.4 3.3zm0-12q3.7 0 6.6-1.5 2.9-1.8 4.6-4.9 1.7-3.3 1.7-7.6 0-4.4-1.7-7.5-1.7-3.1-4.6-4.8-2.9-1.6-6.5-1.6-3.7 0-6.7 1.6-2.8 1.7-4.6 4.8-1.7 3.1-1.7 7.5 0 4.3 1.7 7.6 1.8 3.1 4.6 4.9 3 1.5 6.6 1.5zm64.9 11.3h-15.1l-21.3-50.5h15.1l17.7 43.5h-7.5l18.4-43.5h14zm50.1 0.7q-8 0-14.3-3.4-6.2-3.3-9.9-9.2-3.5-5.9-3.5-13.4 0-7.7 3.5-13.5 3.7-5.9 9.9-9.2 6.3-3.3 14.3-3.3 8.1 0 14.4 3.3 6.3 3.3 9.7 9.2 3.7 5.8 3.7 13.5 0 7.5-3.7 13.4-3.4 5.9-9.7 9.2-6.3 3.4-14.4 3.4zm0-12q3.7 0 6.6-1.6 3-1.8 4.6-4.9 1.7-3.2 1.7-7.5 0-4.4-1.7-7.5-1.6-3.2-4.6-4.8-2.9-1.7-6.5-1.7-3.7 0-6.7 1.7-2.8 1.6-4.6 4.8-1.7 3.1-1.7 7.5 0 4.3 1.7 7.5 1.8 3.1 4.6 4.9 3 1.6 6.6 1.6z" id="path8" />
<path class="c" d="m735.2 202h-15.3v-65.8h15.3zm-45.1 0h-15.3v-65.8h15.3zm30.9-27h-32.1v-12.8h32.1zm52.8 27.7q-8 0-14.3-3.4-6.3-3.3-9.9-9.2-3.5-5.9-3.5-13.5 0-7.6 3.5-13.4 3.7-5.9 9.9-9.2 6.2-3.3 14.3-3.3 8 0 14.3 3.3 6.3 3.3 9.8 9.2 3.6 5.8 3.6 13.4 0 7.6-3.6 13.5-3.5 5.9-9.8 9.2-6.3 3.4-14.3 3.4zm0-12q3.7 0 6.5-1.6 3-1.8 4.6-4.9 1.8-3.2 1.8-7.6 0-4.4-1.8-7.5-1.6-3.1-4.6-4.7-2.8-1.7-6.5-1.7-3.7 0-6.6 1.7-2.9 1.6-4.6 4.7-1.7 3.1-1.7 7.5 0 4.4 1.7 7.6 1.7 3.1 4.6 4.9 2.9 1.6 6.6 1.6zm58.7 12q-9 0-14-4.5-4.9-4.6-4.9-13.6v-44.4h14.6v44.1q0 3.2 1.7 5.1 1.7 1.7 4.6 1.7 3.5 0 6-1.9l3.8 10.3q-2.2 1.6-5.4 2.5-3.1 0.7-6.4 0.7zm8.3-40.1h-35.1v-11.2h35.1zm35 40q-8.6 0-15.2-3.3-6.4-3.4-10-9.2-3.5-6-3.5-13.5 0-7.6 3.4-13.4 3.5-5.9 9.6-9.2 6.2-3.4 13.9-3.4 7.4 0 13.3 3.2 6 3.1 9.4 9 3.6 5.8 3.6 14 0 0.9-0.1 2 0 1-0.1 1.9h-41.1v-8.5h33.3l-5.7 2.5q0.1-3.9-1.6-6.7-1.5-3.1-4.4-4.6-2.8-1.8-6.5-1.8-3.8 0-6.7 1.8-2.8 1.5-4.4 4.6-1.6 2.9-1.6 6.9v2.3q0 4.1 1.8 7.3 1.9 3.1 5.1 4.8 3.5 1.6 8 1.6 4 0 7-1.1 3.1-1.3 5.7-3.8l7.8 8.5q-3.6 3.9-8.8 6.1-5.2 2-12.2 2zm48.7-0.7h-14.7v-69.8h14.7z" id="path10" />
</g>
</svg>