<?xml version="1.0" encoding="UTF-8" standalone="no"?>
<svg xmlns="http://www.w3.org/2000/svg" version="1.2" viewBox="0.0 0.0 1000.0 350.0">
<defs/>
<style>.a{fill:#f00}.b{fill:#fff}.c{fill:#808080}</style>
<path fill-rule="evenodd" d="m135 74v202h-59v-202z" id="path4" fill="#fff" />
<path d="m109.8 252.6l4.1 4-8.9 0.3-12.7-12.3 0.2-8.7 12.8 12.2zm10.3 3.4l-0.1 7.8-28-0.5 0.1-7.8zm0.4-20.2l-0.2 9.2-11.7 9-5.4-5.3zm0.1-5.5l-0.2 8.1-27.8-12.8 0.2-7.8 28.2-11.9-0.2 8.2-24.3 9.3 0.1-3.1zm-5.2-16.6l-0.3 17.8-5.8-2.1 0.3-13.7zm-25 6.3l-0.1 5.4-6-5.4 0.2-7.6zm31.2-23.3q0 3.1-1.1 5.6-1.1 2.5-3.2 4.1l-5-4.4q1.4-1.1 2.2-2.3 0.7-1.2 0.8-2.5 0-3.5-4.1-3.6l-12-0.2-0.1 9.7-6.2-0.1 0.3-17.5 17.7 0.3q5.5 0 8.2 2.9 2.6 2.8 2.5 8zm0.5-30.3q0 3.4-1.2 6.2-1.1 2.9-3.1 4.9-2 2.1-4.6 3.2-2.8 1.1-5.9 1.1-3.2-0.1-5.8-1.3-2.6-1.2-4.5-3.3-2-2.2-3-5-1-2.9-1-6.2 0.1-3.4 1.2-6.2 1.1-2.8 3.2-4.9 1.9-2 4.6-3.1 2.7-1.2 5.8-1.1 3.2 0 5.8 1.3 2.7 1.1 4.6 3.3 1.9 2.1 2.9 4.9 1.1 2.9 1 6.2zm-6.5-0.1q0-1.6-0.5-2.9-0.6-1.4-1.6-2.4-1.1-1.1-2.5-1.7-1.5-0.6-3.3-0.6-1.8-0.1-3.3 0.5-1.5 0.5-2.5 1.6-1.1 0.9-1.7 2.3-0.6 1.4-0.7 3 0 1.6 0.6 3 0.5 1.3 1.6 2.4 1 1 2.5 1.7 1.4 0.5 3.2 0.6 1.8 0 3.4-0.5 1.4-0.6 2.5-1.6 1.1-1 1.7-2.4 0.6-1.4 0.6-3zm6.6-35l-0.2 7.8-28.2 11.5 0.2-8.6 24.4-9.7-0.1 5.1-24.1-10.7 0.2-7.9zm1-27.3q-0.1 3.3-1.2 6.2-1.1 2.8-3.1 4.9-2 2-4.7 3.1-2.7 1.1-5.9 1.1-3.1-0.1-5.7-1.3-2.6-1.2-4.6-3.3-1.9-2.1-2.9-5-1.1-2.9-1-6.2 0-3.4 1.2-6.2 1.1-2.8 3.1-4.9 2-2 4.7-3.1 2.6-1.2 5.8-1.1 3.1 0 5.8 1.3 2.6 1.2 4.5 3.3 2 2.1 3 5 1 2.8 1 6.2zm-6.6-0.1q0.1-1.6-0.4-3-0.6-1.4-1.6-2.4-1.1-1.1-2.5-1.7-1.5-0.6-3.4-0.6-1.8-0.1-3.2 0.5-1.5 0.5-2.6 1.6-1.1 1-1.7 2.3-0.6 1.4-0.6 3 0 1.6 0.5 3 0.6 1.4 1.6 2.4 1 1.1 2.5 1.7 1.5 0.5 3.3 0.6 1.8 0 3.3-0.5 1.5-0.6 2.6-1.6 1-1 1.7-2.3 0.5-1.4 0.5-3z" id="path6" fill="#fff" />
<path d="m145 169.7h43.4l-0.9-53.2h133.3v-42.5h-175.8zm59.9 0v-38.6h115.9l0.1 59.1c0 0-4 15.2-12.6 26.9-13.2 18-35.9 28.6-35.9 28.6l0.2-75.9-69.7-0.1zm-60.8 12.6l113 0.9v69.6l-24.1 13.5c0 0-14-6.1-27.6-13-10.6-5.5-10.9-5-21-11.4-7.4-4.7-7.7-4.4-14.2-10.1-10.4-9.1-11.7-9.2-18.2-21.1-6.8-12.6-7.9-28.4-7.9-28.4z" id="path12" fill="#fff" />
</svg>